<?xml version="1.0" encoding="UTF-8"?>
<svg xmlns="http://www.w3.org/2000/svg" xmlns:xlink="http://www.w3.org/1999/xlink" width="48pt" height="48pt" viewBox="0 0 48 48" version="1.1">
<defs>
<filter id="alpha" filterUnits="objectBoundingBox" x="0%" y="0%" width="100%" height="100%">
  <feColorMatrix type="matrix" in="SourceGraphic" values="0 0 0 0 1 0 0 0 0 1 0 0 0 0 1 0 0 0 1 0"/>
</filter>
<mask id="mask0">
  <g filter="url(#alpha)">
<rect x="0" y="0" width="48" height="48" style="fill:rgb(0%,0%,0%);fill-opacity:0.0509804;stroke:none;"/>
  </g>
</mask>
<clipPath id="clip1">
  <rect width="48" height="48"/>
</clipPath>
<g id="surface335775" clip-path="url(#clip1)">
<path style=" stroke:none;fill-rule:nonzero;fill:rgb(0%,0%,0%);fill-opacity:1;" d="M 30 35 L 30 26 C 30 24.898438 29.101562 24 28 24 C 26.898438 24 26 24.898438 26 26 L 26 35 L 20 35 L 20 18 L 26 18 L 26 19.027344 C 27.039062 18.359375 28.253906 18 29.5 18 C 33.085938 18 36 20.914062 36 24.5 L 36 35 Z M 13 35 L 13 18 L 15.964844 18 C 14.246094 18 13 16.738281 13 15 C 13 13.261719 14.265625 12 16.011719 12 C 17.707031 12 18.964844 13.253906 19 14.980469 C 19 16.734375 17.734375 18 15.988281 18 L 19 18 L 19 35 Z M 13 35 "/>
</g>
<mask id="mask1">
  <g filter="url(#alpha)">
<rect x="0" y="0" width="48" height="48" style="fill:rgb(0%,0%,0%);fill-opacity:0.0705882;stroke:none;"/>
  </g>
</mask>
<clipPath id="clip2">
  <rect width="48" height="48"/>
</clipPath>
<g id="surface335778" clip-path="url(#clip2)">
<path style=" stroke:none;fill-rule:nonzero;fill:rgb(0%,0%,0%);fill-opacity:1;" d="M 30.5 34.5 L 30.5 26 C 30.5 24.621094 29.378906 23.5 28 23.5 C 26.621094 23.5 25.5 24.621094 25.5 26 L 25.5 34.5 L 20.5 34.5 L 20.5 18.5 L 25.5 18.5 L 25.5 20.035156 C 26.589844 19.058594 28.011719 18.5 29.5 18.5 C 32.808594 18.5 35.5 21.191406 35.5 24.5 L 35.5 34.5 Z M 13.5 34.5 L 13.5 18.5 L 18.5 18.5 L 18.5 34.5 Z M 15.964844 17.5 C 14.535156 17.5 13.5 16.449219 13.5 15 C 13.5 13.550781 14.554688 12.5 16.011719 12.5 C 17.445312 12.5 18.46875 13.523438 18.5 14.988281 C 18.5 16.449219 17.441406 17.5 15.988281 17.5 Z M 15.964844 17.5 "/>
</g>
</defs>
<g id="surface335770">
<path style=" stroke:none;fill-rule:nonzero;fill:rgb(100%,65.882353%,1.568627%);fill-opacity:1;" d="M 24 4 C 12.953125 4 4 12.953125 4 24 C 4 35.046875 12.953125 44 24 44 C 35.046875 44 44 35.046875 44 24 C 44 12.953125 35.046875 4 24 4 Z M 24 4 "/>
<use xlink:href="#surface335775" mask="url(#mask0)"/>
<use xlink:href="#surface335778" mask="url(#mask1)"/>
<path style=" stroke:none;fill-rule:nonzero;fill:rgb(100%,100%,100%);fill-opacity:1;" d="M 14 19 L 18 19 L 18 34 L 14 34 Z M 15.988281 17 L 15.964844 17 C 14.773438 17 14 16.109375 14 15 C 14 13.863281 14.796875 13 16.011719 13 C 17.226562 13 17.976562 13.863281 18 15 C 18 16.109375 17.226562 17 15.988281 17 Z M 35 24.5 C 35 21.460938 32.539062 19 29.5 19 C 27.636719 19 25.996094 19.929688 25 21.34375 L 25 19 L 21 19 L 21 34 L 25 34 L 25 26 C 25 24.34375 26.34375 23 28 23 C 29.65625 23 31 24.34375 31 26 L 31 34 L 35 34 C 35 34 35 24.921875 35 24.5 Z M 35 24.5 "/>
</g>
</svg>
